<mxfile host="app.diagrams.net" agent="Mozilla/5.0 (Windows NT 10.0; Win64; x64) AppleWebKit/537.36 (KHTML, like Gecko) Chrome/134.0.0.0 YaBrowser/25.4.0.0 Safari/537.36" version="27.0.3">
  <diagram name="SecurityConfig" id="5P1qRvgyDoXIfevTEuYY">
    <mxGraphModel dx="994" dy="556" grid="1" gridSize="10" guides="1" tooltips="1" connect="1" arrows="1" fold="1" page="1" pageScale="1" pageWidth="827" pageHeight="1169" math="0" shadow="0">
      <root>
        <mxCell id="0" />
        <mxCell id="1" parent="0" />
        <mxCell id="9FLLWAt3350ANqI3s_QH-8" style="edgeStyle=orthogonalEdgeStyle;rounded=0;orthogonalLoop=1;jettySize=auto;html=1;exitX=1;exitY=0.5;exitDx=0;exitDy=0;entryX=0;entryY=0.5;entryDx=0;entryDy=0;" edge="1" parent="1" source="9FLLWAt3350ANqI3s_QH-3" target="9FLLWAt3350ANqI3s_QH-7">
          <mxGeometry relative="1" as="geometry" />
        </mxCell>
        <mxCell id="9FLLWAt3350ANqI3s_QH-11" style="edgeStyle=orthogonalEdgeStyle;rounded=0;orthogonalLoop=1;jettySize=auto;html=1;exitX=0.5;exitY=1;exitDx=0;exitDy=0;entryX=0.5;entryY=0;entryDx=0;entryDy=0;" edge="1" parent="1" source="9FLLWAt3350ANqI3s_QH-3" target="9FLLWAt3350ANqI3s_QH-10">
          <mxGeometry relative="1" as="geometry" />
        </mxCell>
        <mxCell id="9FLLWAt3350ANqI3s_QH-14" value="addFilterBefore" style="edgeLabel;html=1;align=center;verticalAlign=middle;resizable=0;points=[];" vertex="1" connectable="0" parent="9FLLWAt3350ANqI3s_QH-11">
          <mxGeometry x="-0.2" relative="1" as="geometry">
            <mxPoint as="offset" />
          </mxGeometry>
        </mxCell>
        <mxCell id="9FLLWAt3350ANqI3s_QH-3" value="AuthenticationTimingFilter" style="rounded=0;whiteSpace=wrap;html=1;" vertex="1" parent="1">
          <mxGeometry x="9" y="80" width="153" height="25" as="geometry" />
        </mxCell>
        <mxCell id="9FLLWAt3350ANqI3s_QH-5" style="edgeStyle=orthogonalEdgeStyle;rounded=0;orthogonalLoop=1;jettySize=auto;html=1;exitX=0.5;exitY=1;exitDx=0;exitDy=0;entryX=0.5;entryY=0;entryDx=0;entryDy=0;" edge="1" parent="1" source="9FLLWAt3350ANqI3s_QH-4" target="9FLLWAt3350ANqI3s_QH-3">
          <mxGeometry relative="1" as="geometry" />
        </mxCell>
        <mxCell id="9FLLWAt3350ANqI3s_QH-6" value="addFilterBefore" style="edgeLabel;html=1;align=center;verticalAlign=middle;resizable=0;points=[];" vertex="1" connectable="0" parent="9FLLWAt3350ANqI3s_QH-5">
          <mxGeometry x="-0.1304" y="-1" relative="1" as="geometry">
            <mxPoint as="offset" />
          </mxGeometry>
        </mxCell>
        <mxCell id="9FLLWAt3350ANqI3s_QH-4" value="SecurityConfig" style="rounded=0;whiteSpace=wrap;html=1;" vertex="1" parent="1">
          <mxGeometry x="9" y="9" width="153" height="25" as="geometry" />
        </mxCell>
        <mxCell id="9FLLWAt3350ANqI3s_QH-7" value="&lt;span style=&quot;font-size: 11px; text-wrap-mode: nowrap; background-color: rgb(255, 255, 255);&quot;&gt;UsernamePasswordAuthenticationFilter&lt;/span&gt;" style="rounded=0;whiteSpace=wrap;html=1;" vertex="1" parent="1">
          <mxGeometry x="440" y="80" width="213" height="25" as="geometry" />
        </mxCell>
        <mxCell id="9FLLWAt3350ANqI3s_QH-13" style="edgeStyle=orthogonalEdgeStyle;rounded=0;orthogonalLoop=1;jettySize=auto;html=1;exitX=1;exitY=0.5;exitDx=0;exitDy=0;entryX=0;entryY=0.5;entryDx=0;entryDy=0;" edge="1" parent="1" source="9FLLWAt3350ANqI3s_QH-10" target="9FLLWAt3350ANqI3s_QH-7">
          <mxGeometry relative="1" as="geometry">
            <mxPoint x="220" y="162.5" as="targetPoint" />
          </mxGeometry>
        </mxCell>
        <mxCell id="9FLLWAt3350ANqI3s_QH-16" style="edgeStyle=orthogonalEdgeStyle;rounded=0;orthogonalLoop=1;jettySize=auto;html=1;exitX=0.5;exitY=1;exitDx=0;exitDy=0;entryX=0.5;entryY=0;entryDx=0;entryDy=0;" edge="1" parent="1" source="9FLLWAt3350ANqI3s_QH-10" target="9FLLWAt3350ANqI3s_QH-15">
          <mxGeometry relative="1" as="geometry" />
        </mxCell>
        <mxCell id="9FLLWAt3350ANqI3s_QH-19" value="addFilterBefore" style="edgeLabel;html=1;align=center;verticalAlign=middle;resizable=0;points=[];" vertex="1" connectable="0" parent="9FLLWAt3350ANqI3s_QH-16">
          <mxGeometry x="-0.1556" y="-1" relative="1" as="geometry">
            <mxPoint x="1" as="offset" />
          </mxGeometry>
        </mxCell>
        <mxCell id="9FLLWAt3350ANqI3s_QH-10" value="RateLimitFilter" style="rounded=0;whiteSpace=wrap;html=1;" vertex="1" parent="1">
          <mxGeometry x="9" y="150" width="153" height="25" as="geometry" />
        </mxCell>
        <mxCell id="9FLLWAt3350ANqI3s_QH-17" style="edgeStyle=orthogonalEdgeStyle;rounded=0;orthogonalLoop=1;jettySize=auto;html=1;exitX=1;exitY=0.5;exitDx=0;exitDy=0;entryX=0;entryY=0.5;entryDx=0;entryDy=0;" edge="1" parent="1" source="9FLLWAt3350ANqI3s_QH-15" target="9FLLWAt3350ANqI3s_QH-7">
          <mxGeometry relative="1" as="geometry" />
        </mxCell>
        <mxCell id="9FLLWAt3350ANqI3s_QH-38" style="edgeStyle=orthogonalEdgeStyle;rounded=0;orthogonalLoop=1;jettySize=auto;html=1;exitX=0.5;exitY=1;exitDx=0;exitDy=0;entryX=0.5;entryY=0;entryDx=0;entryDy=0;" edge="1" parent="1" source="9FLLWAt3350ANqI3s_QH-15" target="9FLLWAt3350ANqI3s_QH-37">
          <mxGeometry relative="1" as="geometry" />
        </mxCell>
        <mxCell id="9FLLWAt3350ANqI3s_QH-39" value="addFilterBefore" style="edgeLabel;html=1;align=center;verticalAlign=middle;resizable=0;points=[];" vertex="1" connectable="0" parent="9FLLWAt3350ANqI3s_QH-38">
          <mxGeometry x="-0.2" y="-2" relative="1" as="geometry">
            <mxPoint x="2" as="offset" />
          </mxGeometry>
        </mxCell>
        <mxCell id="9FLLWAt3350ANqI3s_QH-15" value="TokenValidationFilter" style="rounded=0;whiteSpace=wrap;html=1;" vertex="1" parent="1">
          <mxGeometry x="9" y="220" width="153" height="25" as="geometry" />
        </mxCell>
        <mxCell id="9FLLWAt3350ANqI3s_QH-27" style="edgeStyle=orthogonalEdgeStyle;rounded=0;orthogonalLoop=1;jettySize=auto;html=1;exitX=0.5;exitY=1;exitDx=0;exitDy=0;entryX=0.5;entryY=0;entryDx=0;entryDy=0;" edge="1" parent="1" source="9FLLWAt3350ANqI3s_QH-20" target="9FLLWAt3350ANqI3s_QH-26">
          <mxGeometry relative="1" as="geometry" />
        </mxCell>
        <mxCell id="9FLLWAt3350ANqI3s_QH-28" value="addFilterBefore" style="edgeLabel;html=1;align=center;verticalAlign=middle;resizable=0;points=[];" vertex="1" connectable="0" parent="9FLLWAt3350ANqI3s_QH-27">
          <mxGeometry x="-0.1556" y="-1" relative="1" as="geometry">
            <mxPoint as="offset" />
          </mxGeometry>
        </mxCell>
        <mxCell id="9FLLWAt3350ANqI3s_QH-30" style="edgeStyle=orthogonalEdgeStyle;rounded=0;orthogonalLoop=1;jettySize=auto;html=1;exitX=1;exitY=0.5;exitDx=0;exitDy=0;entryX=0;entryY=0.5;entryDx=0;entryDy=0;" edge="1" parent="1" source="9FLLWAt3350ANqI3s_QH-20" target="9FLLWAt3350ANqI3s_QH-29">
          <mxGeometry relative="1" as="geometry" />
        </mxCell>
        <mxCell id="9FLLWAt3350ANqI3s_QH-20" value="CsrfTokenDecryptionFilter" style="rounded=0;whiteSpace=wrap;html=1;" vertex="1" parent="1">
          <mxGeometry x="9" y="360" width="153" height="25" as="geometry" />
        </mxCell>
        <mxCell id="9FLLWAt3350ANqI3s_QH-31" style="edgeStyle=orthogonalEdgeStyle;rounded=0;orthogonalLoop=1;jettySize=auto;html=1;exitX=1;exitY=0.5;exitDx=0;exitDy=0;entryX=0;entryY=0.5;entryDx=0;entryDy=0;" edge="1" parent="1" source="9FLLWAt3350ANqI3s_QH-26" target="9FLLWAt3350ANqI3s_QH-29">
          <mxGeometry relative="1" as="geometry" />
        </mxCell>
        <mxCell id="9FLLWAt3350ANqI3s_QH-44" value="Выполняется&lt;div&gt;до стандартного&lt;/div&gt;&lt;div&gt;CSRF&lt;/div&gt;" style="edgeLabel;html=1;align=center;verticalAlign=middle;resizable=0;points=[];" vertex="1" connectable="0" parent="9FLLWAt3350ANqI3s_QH-31">
          <mxGeometry x="0.5563" y="2" relative="1" as="geometry">
            <mxPoint y="1" as="offset" />
          </mxGeometry>
        </mxCell>
        <mxCell id="9FLLWAt3350ANqI3s_QH-33" style="edgeStyle=orthogonalEdgeStyle;rounded=0;orthogonalLoop=1;jettySize=auto;html=1;exitX=0.5;exitY=1;exitDx=0;exitDy=0;entryX=0.5;entryY=0;entryDx=0;entryDy=0;" edge="1" parent="1" source="9FLLWAt3350ANqI3s_QH-26" target="9FLLWAt3350ANqI3s_QH-32">
          <mxGeometry relative="1" as="geometry" />
        </mxCell>
        <mxCell id="9FLLWAt3350ANqI3s_QH-36" value="addFilterAfter" style="edgeLabel;html=1;align=center;verticalAlign=middle;resizable=0;points=[];" vertex="1" connectable="0" parent="9FLLWAt3350ANqI3s_QH-33">
          <mxGeometry x="-0.2" y="-1" relative="1" as="geometry">
            <mxPoint as="offset" />
          </mxGeometry>
        </mxCell>
        <mxCell id="9FLLWAt3350ANqI3s_QH-26" value="CsrfTokenEndpointFilter" style="rounded=0;whiteSpace=wrap;html=1;" vertex="1" parent="1">
          <mxGeometry x="9" y="430" width="153" height="25" as="geometry" />
        </mxCell>
        <mxCell id="9FLLWAt3350ANqI3s_QH-29" value="&lt;span style=&quot;font-size: 11px; text-wrap-mode: nowrap; background-color: rgb(255, 255, 255);&quot;&gt;CsrfFilter&lt;/span&gt;" style="rounded=0;whiteSpace=wrap;html=1;" vertex="1" parent="1">
          <mxGeometry x="440" y="360" width="80" height="25" as="geometry" />
        </mxCell>
        <mxCell id="9FLLWAt3350ANqI3s_QH-35" style="edgeStyle=orthogonalEdgeStyle;rounded=0;orthogonalLoop=1;jettySize=auto;html=1;exitX=1;exitY=0.5;exitDx=0;exitDy=0;entryX=0;entryY=0.5;entryDx=0;entryDy=0;" edge="1" parent="1" source="9FLLWAt3350ANqI3s_QH-32" target="9FLLWAt3350ANqI3s_QH-34">
          <mxGeometry relative="1" as="geometry" />
        </mxCell>
        <mxCell id="9FLLWAt3350ANqI3s_QH-45" value="Выполняется после&lt;div&gt;обработки ошибок&lt;/div&gt;" style="edgeLabel;html=1;align=center;verticalAlign=middle;resizable=0;points=[];" vertex="1" connectable="0" parent="9FLLWAt3350ANqI3s_QH-35">
          <mxGeometry x="0.495" y="-2" relative="1" as="geometry">
            <mxPoint as="offset" />
          </mxGeometry>
        </mxCell>
        <mxCell id="9FLLWAt3350ANqI3s_QH-32" value="CsrfTokenInitializerFilter" style="rounded=0;whiteSpace=wrap;html=1;" vertex="1" parent="1">
          <mxGeometry x="9" y="500" width="153" height="25" as="geometry" />
        </mxCell>
        <mxCell id="9FLLWAt3350ANqI3s_QH-34" value="&lt;span style=&quot;font-size: 11px; text-wrap-mode: nowrap; background-color: rgb(255, 255, 255);&quot;&gt;ExceptionTranslationFilter&lt;/span&gt;" style="rounded=0;whiteSpace=wrap;html=1;" vertex="1" parent="1">
          <mxGeometry x="440" y="500" width="170" height="25" as="geometry" />
        </mxCell>
        <mxCell id="9FLLWAt3350ANqI3s_QH-40" style="edgeStyle=orthogonalEdgeStyle;rounded=0;orthogonalLoop=1;jettySize=auto;html=1;exitX=0.5;exitY=1;exitDx=0;exitDy=0;entryX=0.5;entryY=0;entryDx=0;entryDy=0;" edge="1" parent="1" source="9FLLWAt3350ANqI3s_QH-37" target="9FLLWAt3350ANqI3s_QH-20">
          <mxGeometry relative="1" as="geometry" />
        </mxCell>
        <mxCell id="9FLLWAt3350ANqI3s_QH-41" value="addFilterBefore" style="edgeLabel;html=1;align=center;verticalAlign=middle;resizable=0;points=[];" vertex="1" connectable="0" parent="9FLLWAt3350ANqI3s_QH-40">
          <mxGeometry x="-0.1556" relative="1" as="geometry">
            <mxPoint as="offset" />
          </mxGeometry>
        </mxCell>
        <mxCell id="9FLLWAt3350ANqI3s_QH-42" style="edgeStyle=orthogonalEdgeStyle;rounded=0;orthogonalLoop=1;jettySize=auto;html=1;exitX=1;exitY=0.5;exitDx=0;exitDy=0;entryX=0;entryY=0.5;entryDx=0;entryDy=0;" edge="1" parent="1" source="9FLLWAt3350ANqI3s_QH-37" target="9FLLWAt3350ANqI3s_QH-7">
          <mxGeometry relative="1" as="geometry" />
        </mxCell>
        <mxCell id="9FLLWAt3350ANqI3s_QH-43" value="Выполняется&lt;div&gt;до логина&lt;/div&gt;" style="edgeLabel;html=1;align=center;verticalAlign=middle;resizable=0;points=[];" vertex="1" connectable="0" parent="9FLLWAt3350ANqI3s_QH-42">
          <mxGeometry x="0.6959" relative="1" as="geometry">
            <mxPoint y="1" as="offset" />
          </mxGeometry>
        </mxCell>
        <mxCell id="9FLLWAt3350ANqI3s_QH-37" value="TokenValidationFilter" style="rounded=0;whiteSpace=wrap;html=1;" vertex="1" parent="1">
          <mxGeometry x="9" y="290" width="153" height="25" as="geometry" />
        </mxCell>
      </root>
    </mxGraphModel>
  </diagram>
</mxfile>
